<svg height="283.98666" viewBox="0 0 253.2 283.98666" width="253.2" xmlns="http://www.w3.org/2000/svg"><g transform="matrix(.13333333 0 0 -.13333333 0 283.98667)"><path d="m1562.91 902.91-.05-129.832c-.16-419.859-305.45-635.547-607.278-635.437-313.625.121-606.926 249.781-606.773 649.379l.043 116.351z" fill="#ca6b7a"/><g fill="#3b2122"><path d="m367.223 1499.67c-9.192 325.11 438.824 315.63 456.293-.18-.047-160.71-125.215-233.75-201.231-233.72-103.097.04-249.297 29.62-255.062 233.9zm1127.027-3.69c-.05-125.82-96.21-216.66-216.79-216.61-138.08.04-206.21 103.18-206.16 216.77.05 127.59 82.24 223.68 206.33 223.64 139.81-.06 216.66-96.22 216.62-223.8zm-571.359-238.89c55.07-177.67 228.639-215.37 350.959-218.91 85.66-3.52 174.8 27.9 248.23 89.04l131.03-110.16 139.88 181.71-122.3 94.42c38.48 55.92 47.24 141.55 47.26 202.72.1 241.18-146.63 466.68-440.24 466.8-150.62.05-275.63-70.12-356.112-174.69-37.258 95.9-173.231 204.18-329.473 204.23-143.172.05-434.676-92.4-434.824-489.87-.078-222.25 72.164-490.06 450.586-490.2 153.601-.06 294.535 122.39 315.004 244.91"/><path d="m828.516 1499.49v.17c.007 69.78-21.051 131.39-61.633 175.6-40.563 44.22-100.563 70.68-177.078 70.67v-10c74.258-.06 131.113-25.44 169.711-67.44 38.582-42.01 58.992-101.01 59-168.83v-.17z"/><path d="m589.617 1260.78h.09c66.285-.01 126.027 25 169.16 67.4 43.145 42.39 69.637 102.18 69.649 171.31l-10 .01c-.039-66.58-25.422-123.64-66.661-164.19-41.246-40.53-98.382-64.52-162.148-64.53h-.09z"/><path d="m362.223 1499.69v-.13c.004-62.21 18.648-121.82 56.558-166.04 37.883-44.25 95.141-72.76 170.836-72.74l.004 10c-73.215.08-127.16 27.23-163.246 69.25-36.062 42.03-54.156 99.28-54.152 159.53v.09z"/><path d="m589.809 1745.93h-.11c-68.203.03-125.324-26.51-165.113-70.66-39.816-44.14-62.344-105.71-62.363-175.6h10c.027 67.76 21.832 126.82 59.789 168.9 37.98 42.06 92.074 67.33 157.687 67.36h.102z"/></g></g></svg>